# xmcd
#
# Track frame offsets:
#	150
#	19014
#	43367
#	60430
#	78866
#	95766
#	114516
#	132738
#	147649
#	166489
#	184838
#	199311
#	213390
#	230986
#	258308
#	275315
#
# Disc length: 3958 seconds
#
# Revision: 0
# Processed by: cddbd v1.5.2PL0 Copyright (c) Steve Scherf et al.
# Submitted via: EasyCDDAExtractor 2011.0.0.0
#
DISCID=f80f7410
DTITLE=RATIBOR - Trojan
DYEAR=2013
DGENRE=R&B
TTITLE0=Otvedai rusicha silu
TTITLE1=Butaforia
TTITLE2=Tet-a-tet party
TTITLE3=Davai delat
TTITLE4=Dejavu
TTITLE5=Eto amoralno
TTITLE6=Moja podruga nikoga ne spit
TTITLE7=Bit so mnoi
TTITLE8=Kosmicheskie korabli
TTITLE9=Sladkaja vishnya
TTITLE10=Ya prinimaju boi
TTITLE11=Poet i muzika
TTITLE12=Chari-chari
TTITLE13=Yuznaja saga
TTITLE14=Lubimaja zdet
TTITLE15=Rat'
EXTD=
EXTT0=
EXTT1=
EXTT2=
EXTT3=
EXTT4=
EXTT5=
EXTT6=
EXTT7=
EXTT8=
EXTT9=
EXTT10=
EXTT11=
EXTT12=
EXTT13=
EXTT14=
EXTT15=
PLAYORDER=
